# xmcd
#
# Track frame offsets:
#	150
#	19972
#	32670
#	50780
#	67610
#	80595
#	91140
#	101032
#	118162
#	136582
#	150922
#	166002
#
# Disc length: 2414
#
# Revision: 2
# Processed by: cddbd v1.5.1PL0 Copyright (c) Steve Scherf et al.
# Submitted via: CDex 1.50
# Normalized: r0:DSETVAR1,TDELIM( - );r1:TSWAP
#
DISCID=89096c0c
DTITLE=Various Artist - America's Country - Country Love Songs
DYEAR=1997
DGENRE=Country
TTITLE0=Eddit Rabbit - Suspicious
TTITLE1=John Conlee - She Can't Say That Anymore
TTITLE2=Mark Chestnutt - Almost Goodbye
TTITLE3=Mark Collie - Even The Man In The Moon Is Cryin;
TTITLE4=Michael Martin Murphy - What's Forever For
TTITLE5=Johnny Darrell - Ruby Don't Take Your Love T oTown
TTITLE6=Charley McClain - Who's Cheatin Who
TTITLE7=T.G. Sheppard - Last Cheater's Waltz
TTITLE8=Steve Wariner - You Can Dream Of Me
TTITLE9=Marty Stuart - Tempted
TTITLE10=Ricky Skaggs - Don't Cheat In Our Hometown
TTITLE11=B.J. Thomas - (Hey Won't You Play) Another Somebody Done Somebody Wrong Song
EXTD=YEAR: 1997
EXTT0=
EXTT1=
EXTT2=
EXTT3=
EXTT4=
EXTT5=
EXTT6=
EXTT7=
EXTT8=
EXTT9=
EXTT10=
EXTT11=
PLAYORDER=
